HIERARCHY
ROOT Hips
{
  OFFSET 46.2228 86.6044 9.61172
  CHANNELS 6 Xposition Yposition Zposition Zrotation Xrotation Yrotation
  JOINT spine
  {
    OFFSET 0 6.84637 0.3937
    CHANNELS 3 Zrotation Xrotation Yrotation
    JOINT spine1
    {
      OFFSET 0 9.49621 0
      CHANNELS 3 Zrotation Xrotation Yrotation
      JOINT spine2
      {
        OFFSET 0 9.09909 0
        CHANNELS 3 Zrotation Xrotation Yrotation
        JOINT Neck
        {
          OFFSET 0 23.3612 1.11378
          CHANNELS 3 Zrotation Xrotation Yrotation
          JOINT Head
          {
            OFFSET 0 7.05802 0
            CHANNELS 3 Zrotation Xrotation Yrotation
            End Site
            {
              OFFSET 0 17.0844 -5.63419
            }
          }
        }
        JOINT RightShoulder
        {
          OFFSET -3.83136 9.82631 -0.533491
          CHANNELS 3 Zrotation Xrotation Yrotation
          JOINT RightArm
          {
            OFFSET 0 12.8881 0
            CHANNELS 3 Zrotation Xrotation Yrotation
            JOINT RightArmRoll
            {
              OFFSET 0 6.50617 0
              CHANNELS 3 Zrotation Xrotation Yrotation
              JOINT RightForeArm
              {
                OFFSET 0 18.9501 0
                CHANNELS 3 Zrotation Xrotation Yrotation
                JOINT RightForeArmRoll
                {
                  OFFSET 0 7.30092 0
                  CHANNELS 3 Zrotation Xrotation Yrotation
                  JOINT RightHand
                  {
                    OFFSET 0 14.6514 0
                    CHANNELS 3 Zrotation Xrotation Yrotation
                    End Site
                    {
                      OFFSET 0 0 0
                    }
                  }
                }
              }
            }
          }
        }
        JOINT LeftShoulder
        {
          OFFSET 3.83136 9.82631 -0.533491
          CHANNELS 3 Zrotation Xrotation Yrotation
          JOINT LeftArm
          {
            OFFSET 0 12.8881 0
            CHANNELS 3 Zrotation Xrotation Yrotation
            JOINT LeftArmRoll
            {
              OFFSET 0 6.50617 0
              CHANNELS 3 Zrotation Xrotation Yrotation
              JOINT LeftForeArm
              {
                OFFSET 0 18.9501 0
                CHANNELS 3 Zrotation Xrotation Yrotation
                JOINT LeftForeArmRoll
                {
                  OFFSET 0 7.30092 0
                  CHANNELS 3 Zrotation Xrotation Yrotation
                  JOINT LeftHand
                  {
                    OFFSET 0 14.6514 0
                    CHANNELS 3 Zrotation Xrotation Yrotation
                    End Site
                    {
                      OFFSET 0 0 0
                    }
                  }
                }
              }
            }
          }
        }
      }
    }
  }
  JOINT RightUpLeg
  {
    OFFSET -6.06837 -1.11278 -0.933477
    CHANNELS 3 Zrotation Xrotation Yrotation
    JOINT RightUpLegRoll
    {
      OFFSET 0 17.1796 0
      CHANNELS 3 Zrotation Xrotation Yrotation
      JOINT RightLeg
      {
        OFFSET 0 -21.2743 0
        CHANNELS 3 Zrotation Xrotation Yrotation
        JOINT RightLegRoll
        {
          OFFSET 0 21.3439 0
          CHANNELS 3 Zrotation Xrotation Yrotation
          JOINT RightFoot
          {
            OFFSET 0 17.7652 0
            CHANNELS 3 Zrotation Xrotation Yrotation
            JOINT RightToeBase
            {
              OFFSET 0 14.8508 0
              CHANNELS 3 Zrotation Xrotation Yrotation
              End Site
              {
                OFFSET 0.00629469 7.19214 -0.829005
              }
            }
          }
        }
      }
    }
  }
  JOINT LeftUpLeg
  {
    OFFSET 6.06837 -1.11278 -0.933477
    CHANNELS 3 Zrotation Xrotation Yrotation
    JOINT LeftUpLegRoll
    {
      OFFSET 0 17.1797 0
      CHANNELS 3 Zrotation Xrotation Yrotation
      JOINT LeftLeg
      {
        OFFSET 0 21.2742 0
        CHANNELS 3 Zrotation Xrotation Yrotation
        JOINT LeftLegRoll
        {
          OFFSET 0 21.5412 0
          CHANNELS 3 Zrotation Xrotation Yrotation
          JOINT LeftFoot
          {
            OFFSET 0 17.5679 0
            CHANNELS 3 Zrotation Xrotation Yrotation
            JOINT LeftToeBase
            {
              OFFSET 0 14.8508 0
              CHANNELS 3 Zrotation Xrotation Yrotation
              End Site
              {
                OFFSET -0.0282102 7.19214 -0.829005
              }
            }
          }
        }
      }
    }
  }
}
MOTION
Frames: 4
Frame Time: 0.00208333
48.6684 86.8636 7.88578 1.78308 -1.13528 -0.552445 1.12442 -2.99701 1.32778 2.30374 -1.9768 2.5697 2.27573 -0.333173 2.53086 -8.7323 25.3702 2.64069 10.1573 15.0335 -1.26925 28.0204 -11.6221 -7.885 48.0019 20.3612 54.2484 8.76395e-06 1.26081e-06 -4.0096e-06 1.62263 0.0113463 0.256285 5.49263e-06 -4.38091e-06 -3.06214 8.02919 -4.95145 0.697707 -44.503 -9.6663 5.8843 -46.9891 31.1578 -63.0111 5.91376e-06 3.61382e-06 1.24688e-05 1.20406 0.35844 -2.53076 1.01926e-05 7.04906e-06 3.00153 -8.02891 -4.95144 -0.697675 177.775 14.8711 -2.09596 180 -1.52559e-05 178.882 177.605 23.6465 179.799 3.0346e-06 -1.6124e-06 0.683271 -21.8363 70.9341 22.37 8.13649 25.2327 -3.48773 -176.781 11.193 -0.172661 4.54188e-06 -4.6773e-06 -0.769028 -1.41115 -19.8039 0.613843 2.2066e-06 -3.05657e-06 -0.158724 16.3299 70.7641 -21.7601 -8.13649 25.2326 3.48774 
48.6717 86.8731 7.88505 1.78423 -1.13839 -0.552206 1.12444 -2.99692 1.32832 2.30221 -1.97523 2.57069 2.27461 -0.331597 2.53189 -8.72632 25.3685 2.63499 10.1554 15.0344 -1.27249 28.0238 -11.6247 -7.88771 47.996 20.3654 54.2509 8.76395e-06 1.26081e-06 -4.0096e-06 1.62244 0.0113455 0.256342 5.49263e-06 -4.38091e-06 -3.06215 8.02919 -4.95145 0.697707 -44.4965 -9.66511 5.88326 -47.0001 31.1646 -63.0122 5.91376e-06 3.61382e-06 1.24688e-05 1.20702 0.362227 -2.53116 1.01926e-05 7.04906e-06 3.00153 -8.02891 -4.95144 -0.697675 177.772 14.8686 -2.09293 180 -1.52559e-05 178.882 177.603 23.6481 179.799 3.0346e-06 -1.6124e-06 0.683337 -21.8397 70.9348 22.3722 8.13649 25.2327 -3.48773 -176.783 11.191 -0.17161 4.54188e-06 -4.6773e-06 -0.769027 -1.41049 -19.8044 0.614087 2.2066e-06 -3.05657e-06 -0.158771 16.3313 70.7635 -21.7619 -8.13649 25.2326 3.48774 
48.6719 86.8707 7.8868 1.78535 -1.14145 -0.551943 1.12446 -2.99679 1.32884 2.30069 -1.97365 2.57166 2.27349 -0.330013 2.53289 -8.72028 25.3667 2.62933 10.1534 15.0353 -1.27566 28.0272 -11.6272 -7.89042 47.9901 20.3697 54.2535 8.76395e-06 1.26081e-06 -4.0096e-06 1.6222 0.0113446 0.256398 5.49263e-06 -4.38091e-06 -3.06217 8.02919 -4.95145 0.697707 -44.4899 -9.66403 5.88231 -47.0111 31.1715 -63.0134 5.91376e-06 3.61382e-06 1.24688e-05 1.21001 0.365924 -2.53156 1.01926e-05 7.04906e-06 3.00153 -8.02891 -4.95144 -0.697675 177.77 14.8663 -2.08985 180 -1.52559e-05 178.882 177.602 23.6498 179.8 3.0346e-06 -1.6124e-06 0.683405 -21.8432 70.9356 22.3743 8.13649 25.2327 -3.48773 -176.784 11.189 -0.17062 4.54188e-06 -4.6773e-06 -0.769027 -1.40986 -19.8051 0.614314 2.2066e-06 -3.05657e-06 -0.158819 16.3326 70.763 -21.7636 -8.13649 25.2326 3.48774 
48.6664 86.8724 7.87495 1.7864 -1.1444 -0.551657 1.12447 -2.99661 1.32933 2.29922 -1.97207 2.57256 2.27237 -0.328437 2.53382 -8.71427 25.3649 2.6238 10.1514 15.0363 -1.27872 28.0307 -11.6297 -7.89307 47.9841 20.3741 54.2561 8.76395e-06 1.26081e-06 -4.0096e-06 1.62192 0.0113437 0.256455 5.49263e-06 -4.38091e-06 -3.06219 8.02919 -4.95145 0.697707 -44.4834 -9.66307 5.88145 -47.0217 31.1785 -63.0147 5.91376e-06 3.61382e-06 1.24688e-05 1.21301 0.369409 -2.53195 1.01926e-05 7.04906e-06 3.00153 -8.02891 -4.95144 -0.697675 177.768 14.8641 -2.08685 180 -1.52559e-05 178.882 177.6 23.6515 179.801 3.0346e-06 -1.6124e-06 0.683474 -21.8468 70.9363 22.3765 8.13649 25.2327 -3.48773 -176.785 11.1871 -0.169728 4.54188e-06 -4.6773e-06 -0.769026 -1.40929 -19.8058 0.614519 2.2066e-06 -3.05657e-06 -0.158866 16.3339 70.7625 -21.7653 -8.13649 25.2326 3.48774 
